<?xml version="1.0" encoding="utf-8"?>
<!-- Generator: Adobe Illustrator 24.3.0, SVG Export Plug-In . SVG Version: 6.00 Build 0)  -->
<svg version="1.1" id="Layer_1" xmlns="http://www.w3.org/2000/svg" xmlns:xlink="http://www.w3.org/1999/xlink" x="0px" y="0px"
	 viewBox="0 0 2500 2432" style="enable-background:new 0 0 2500 2432;" xml:space="preserve">
<style type="text/css">
	.st0{fill:#FFFFFF;}
	.st1{fill:#844444;}
</style>
<path class="st0" d="M2490.3,1245.1c0,550-356.3,1016.5-850.8,1181.4c-7.7,1.5-14.7,2.2-21.2,2.3H867c-4.9-0.3-10.1-1-15.5-2.1
	C356.8,2261.9,0,1795.2,0,1245.1C0,557.4,557.6-0.1,1245.2-0.1C1932.8-0.1,2490.3,557.4,2490.3,1245.1z"/>
<path class="st1" d="M2490.3,1245.1c0,550-356.3,1016.5-850.8,1181.4c-7.7,1.5-14.7,2.2-21.2,2.3c-0.8,0-1.6,0-2.4,0
	c-45.3-0.5-62-33.4-62-62c0-41,1.5-175.1,1.5-341.7c0-116.2-39.8-191.9-84.5-230.6c277.3-30.8,568.6-136.1,568.6-614.4
	c0-135.9-48.3-247-128.1-334.2c12.9-31.4,55.6-158-12.2-329.5c0,0-104.4-33.5-342.1,127.6c-99.5-27.6-206.1-41.4-311.9-41.9
	c-105.8,0.5-212.3,14.3-311.7,41.9C695.6,482.8,591,516.3,591,516.3c-67.6,171.5-25,298.1-12.1,329.5
	C499.3,933,450.6,1044.1,450.6,1180c0,477.1,290.7,583.9,567.3,615.4c-35.6,31.1-67.9,86-79,166.5
	c-71.1,31.8-251.3,86.9-362.3-103.5c0,0-65.9-119.5-190.9-128.3c0,0-121.5-1.6-8.5,75.7c0,0,81.6,38.3,138.3,182.2
	c0,0,73.1,222.2,419.5,146.9c0.5,104,1.7,202.1,1.7,231.8c0,27.2-15.5,59-56.3,62c-4.2,0.3-8.6,0.3-13.3,0c-4.9-0.3-10.1-1-15.5-2.1
	C356.8,2261.9,0,1795.2,0,1245.1C0,557.4,557.6-0.1,1245.2-0.1C1932.8-0.1,2490.3,557.4,2490.3,1245.1z"/>
<path class="st1" d="M466.4,1773.8c-2.7,6.2-12.5,8-21.3,3.8c-9-4.1-14.1-12.5-11.2-18.7c2.7-6.4,12.4-8.2,21.4-3.9
	C464.3,1759,469.5,1767.6,466.4,1773.8 M527.6,1828.4c-5.9,5.5-17.5,2.9-25.4-5.8c-8.1-8.7-9.7-20.3-3.6-25.9s17.4-2.9,25.5,5.8
	S533.8,1822.9,527.6,1828.4 M569.6,1898.3c-7.6,5.3-20.1,0.3-27.8-10.7s-7.6-24.3,0.2-29.7s20-0.5,27.8,10.4
	C577.4,1879.6,577.4,1892.9,569.6,1898.3 M640.6,1979.4c-6.8,7.5-21.3,5.5-32-4.8c-10.9-10-13.9-24.3-7.1-31.8s21.5-5.4,32.3,4.8
	C644.6,1957.6,647.9,1971.9,640.6,1979.4 M732.5,2006.7c-3,9.8-17,14.2-31.1,10s-23.3-15.7-20.4-25.6s17-14.4,31.2-10
	C726.3,1985.4,735.5,1996.8,732.5,2006.7 M837.1,2018.3c0.3,10.3-11.6,18.8-26.4,19s-26.9-8-27.1-18.1c0-10.4,11.7-18.8,26.6-19.1
	S837.1,2008.1,837.1,2018.3 M939.8,2014.3c1.8,10-8.5,20.3-23.2,23c-14.5,2.6-27.8-3.5-29.7-13.5c-1.8-10.3,8.7-20.6,23.1-23.2
	C924.7,1998.1,937.9,2004.1,939.8,2014.3"/>
</svg>
