<svg id="Layer_1" data-name="Layer 1" xmlns="http://www.w3.org/2000/svg" viewBox="0 0 2500 2500"><defs><style>.cls-1{fill:#844444;}.cls-2{fill:#fff;}.cls-3{fill:#a83838;}</style></defs><circle class="cls-1" cx="1250" cy="1250" r="1250"/><path class="cls-2" d="M1393.1,1195.6V1585h320.4V1195.6Zm20.3,183.5A125,125,0,0,1,1537.5,1255h.1a122.51,122.51,0,1,1-124.2,124.1Z"/><path class="cls-3" d="M1537.5,1255a125,125,0,0,0-124.1,124.1v-1.6A122.51,122.51,0,0,1,1535.9,1255Z"/><path class="cls-2" d="M2051.7,1151.9a182.69,182.69,0,0,0-275.9-26.9,889.08,889.08,0,0,0-481.2-153.7l81.3-390,267.5,56.3a125.07,125.07,0,1,0,16.3-76.3L1353.4,500a38.9,38.9,0,0,0-15.2-.3,38.07,38.07,0,0,0-14.2,5.6,39.29,39.29,0,0,0-10.9,10.6,40.43,40.43,0,0,0-6,14l-92.5,433.8a893.09,893.09,0,0,0-487.5,153.7,182.53,182.53,0,1,0-201.3,298.8c-.3,4.6-.6,9.2-.8,13.8-.4,9.2-.4,18.3,0,27.5.2,4.6.4,9.2.8,13.8,0,280,326.3,507.5,728.8,507.5s728.8-227.5,728.8-507.5c.4-4.6.6-9.2.8-13.8.4-9.2.4-18.3,0-27.5-.2-4.6-.4-9.2-.8-13.8a182,182,0,0,0,42.2-29,176.95,176.95,0,0,0,26.1-235.3Zm-396.5,277.8a125,125,0,0,1-118.1,80.3l1.3-5a125,125,0,0,1-125-125.9v-.1a125,125,0,0,1,124.1-124.1h.1a129.34,129.34,0,0,1,117.6,174.8Zm-783.9,33.7a124.93,124.93,0,1,1,88.4,36.7,124.28,124.28,0,0,1-47.8-9.5A126,126,0,0,1,871.3,1463.4Zm688.8,259.5.8-4.2a480.67,480.67,0,0,1-308.8,96.3,479.91,479.91,0,0,1-308.8-96.4,33.79,33.79,0,0,1,47.5-47.6,404.46,404.46,0,0,0,59,36,409,409,0,0,0,201,42.8,401.21,401.21,0,0,0,69.3-2.1A423.25,423.25,0,0,0,1388,1734a411.15,411.15,0,0,0,124.1-60.5c7.2-5.4,15.9-8.9,24.8-8.8a34,34,0,0,1,23.2,58.2Z"/></svg>