<svg id="svg2" xmlns="http://www.w3.org/2000/svg" xmlns:xlink="http://www.w3.org/1999/xlink" viewBox="0 0 2500 2500"><defs><style>.cls-1{fill:#844444;}.cls-2{fill:#c8daea;}.cls-3{fill:#a9c9dd;}.cls-4{fill:url(#linear-gradient);}</style><linearGradient id="linear-gradient" x1="969.73" y1="1362.46" x2="994.73" y2="1402.46" gradientTransform="translate(-8757.5 -12903.33) scale(10.42)" gradientUnits="userSpaceOnUse"><stop offset="0" stop-color="#eff7fc"/><stop offset="1" stop-color="#fff"/></linearGradient></defs><path id="path2995-1-0" class="cls-1" d="M2500,1250c0,690.63-559.37,1250-1250,1250S0,1940.63,0,1250,559.38,0,1250,0,2500,559.38,2500,1250Z"/><path id="path2993" class="cls-2" d="M1020.83,1822.92c-40.62,0-33.33-15.63-47.91-54.17L854.17,1377.08l737.5-460.41,86.46,22.91-71.88,195.84Z"/><path id="path2989" class="cls-3" d="M1020.83,1822.92c31.25,0,44.8-14.59,62.5-31.25,27.09-26,375-364.59,375-364.59L1244.79,1375l-197.91,125-26.05,312.5Z"/><path id="path2991" class="cls-4" d="M1041.67,1504.17,1545.83,1876c57.29,31.25,99,15.63,113.54-53.12l205.21-966.67c20.84-84.37-32.29-121.87-87.5-96.88L572.92,1224c-82.3,33.33-81.25,79.17-14.59,99l309.38,96.87,715.62-451c33.34-20.83,64.59-9.37,39.59,13.54Z"/></svg>